<svg xmlns="http://www.w3.org/2000/svg" viewBox="0 0 512 512">
  <rect width="512" height="512" fill="#FFFFFF"/>
  <path d="M 146.0 212.6 L 147.1 213.0 L 148.2 213.3 L 149.3 213.7 L 150.4 214.1 L 151.5 214.5 L 152.6 214.8 L 153.7 215.2 L 154.8 215.6 L 155.9 215.9 L 157.0 216.3 L 158.1 216.7 L 159.2 217.0 L 160.3 217.4 L 161.4 217.8 L 162.5 218.1 L 163.6 218.5 L 164.7 218.9 L 165.8 219.2 L 166.9 219.6 L 168.0 219.9 L 169.1 220.3 L 170.2 220.7 L 171.3 221.0 L 172.4 221.4 L 173.5 221.7 L 174.6 222.1 L 175.7 222.5 L 176.8 222.8 L 177.9 223.2 L 179.0 223.5 L 180.1 223.9 L 181.2 224.2 L 182.3 224.6 L 183.4 224.9 L 184.5 225.3 L 185.6 225.6 L 186.7 226.0 L 187.8 226.3 L 188.9 226.7 L 190.0 227.0 L 191.1 227.4 L 192.2 227.7 L 193.3 228.1 L 194.4 228.4 L 195.5 228.8 L 196.6 229.1 L 197.7 229.4 L 198.8 229.8 L 199.9 230.1 L 201.0 230.5 L 202.1 230.8 L 203.2 231.1 L 204.3 231.5 L 205.4 231.8 L 206.5 232.2 L 207.6 232.5 L 208.7 232.8 L 209.8 233.2 L 210.9 233.5 L 212.0 233.8 L 213.1 234.2 L 214.2 234.5 L 215.3 234.8 L 216.4 235.2 L 217.5 235.5 L 218.6 235.8 L 219.7 236.2 L 220.8 236.5 L 221.9 236.8 L 223.0 237.1 L 224.1 237.5 L 225.2 237.8 L 226.3 238.1 L 227.4 238.4 L 228.5 238.8 L 229.6 239.1 L 230.7 239.4 L 231.8 239.7 L 232.9 240.1 L 234.0 240.4 L 235.1 240.7 L 236.2 241.0 L 237.3 241.3 L 238.4 241.7 L 239.5 242.0 L 240.6 242.3 L 241.7 242.6 L 242.8 242.9 L 243.9 243.2 L 245.0 243.5 L 246.1 243.9 L 247.2 244.2 L 248.3 244.5 L 249.4 244.8 L 250.5 245.1 L 251.6 245.4 L 252.7 245.7 L 253.8 246.0 L 254.9 246.3 L 256.0 246.7 L 257.1 247.0 L 258.2 247.3 L 259.3 247.6 L 260.4 247.9 L 261.5 248.2 L 262.6 248.5 L 263.7 248.8 L 264.8 249.1 L 265.9 249.4 L 267.0 249.7 L 268.1 250.0 L 269.2 250.3 L 270.3 250.6 L 271.4 250.9 L 272.5 251.2 L 273.6 251.5 L 274.7 251.8 L 275.8 252.1 L 276.9 252.4 L 278.0 252.7 L 279.1 252.9 L 280.2 253.2 L 281.3 253.5 L 282.4 253.8 L 283.5 254.1 L 284.6 254.4 L 285.7 254.7 L 286.8 255.0 L 287.9 255.3 L 289.0 255.6 L 290.1 255.8 L 291.2 256.1 L 292.3 256.4 L 293.4 256.7 L 294.5 257.0 L 295.6 257.3 L 296.7 257.6 L 297.8 257.8 L 298.9 258.1 L 300.0 258.4 L 301.1 258.7 L 302.2 259.0 L 303.3 259.2 L 304.4 259.5 L 305.5 259.8 L 306.6 260.1 L 307.7 260.3 L 308.8 260.6 L 309.9 260.9 L 311.0 261.2 L 312.1 261.4 L 313.2 261.7 L 314.3 262.0 L 315.4 262.3 L 316.5 262.5 L 317.6 262.8 L 318.7 263.1 L 319.8 263.3 L 320.9 263.6 L 322.0 263.9 L 323.1 264.1 L 324.2 264.4 L 325.3 264.7 L 326.4 264.9 L 327.5 265.2 L 328.6 265.5 L 329.7 265.7 L 330.8 266.0 L 331.9 266.2 L 333.0 266.5 L 334.1 266.8 L 335.2 267.0 L 336.3 267.3 L 337.4 267.5 L 338.5 267.8 L 339.6 268.0 L 340.7 268.3 L 341.8 268.6 L 342.9 268.8 L 344.0 269.1 L 345.1 269.3 L 346.2 269.6 L 347.3 269.8 L 348.4 270.1 L 349.5 270.3 L 350.6 270.6 L 351.7 270.8 L 352.8 271.1 L 353.9 271.3 L 355.0 271.6 L 356.1 271.8 L 357.2 272.1 L 358.3 272.3 L 359.4 272.5 L 360.5 272.8 L 361.6 273.0 L 362.7 273.3 L 363.8 273.5 L 364.9 273.8 L 366.0 274.0 L 365.6 274.4 L 365.2 274.8 L 364.8 275.2 L 364.4 275.6 L 364.0 276.0 L 363.6 276.4 L 363.2 276.8 L 362.8 277.2 L 362.3 277.6 L 361.9 278.0 L 361.5 278.3 L 361.1 278.7 L 360.7 279.1 L 360.3 279.5 L 359.8 279.9 L 359.4 280.3 L 359.0 280.7 L 358.6 281.1 L 358.1 281.4 L 357.7 281.8 L 357.3 282.2 L 356.8 282.6 L 356.4 283.0 L 356.0 283.3 L 355.5 283.7 L 355.1 284.1 L 354.7 284.5 L 354.2 284.8 L 353.8 285.2 L 353.3 285.6 L 352.9 286.0 L 352.4 286.3 L 352.0 286.7 L 351.5 287.1 L 351.1 287.4 L 350.6 287.8 L 350.2 288.2 L 349.7 288.6 L 349.3 288.9 L 348.8 289.3 L 348.3 289.6 L 347.9 290.0 L 347.4 290.4 L 346.9 290.7 L 346.5 291.1 L 346.0 291.4 L 345.5 291.8 L 345.1 292.2 L 344.6 292.5 L 344.1 292.9 L 343.6 293.2 L 343.2 293.6 L 342.7 293.9 L 342.2 294.3 L 341.7 294.6 L 341.2 295.0 L 340.8 295.3 L 340.3 295.7 L 339.8 296.0 L 339.3 296.4 L 338.8 296.7 L 338.3 297.1 L 337.8 297.4 L 337.3 297.8 L 336.8 298.1 L 336.3 298.4 L 335.8 298.8 L 335.3 299.1 L 334.8 299.5 L 334.3 299.8 L 333.8 300.1 L 333.3 300.5 L 332.8 300.8 L 332.3 301.1 L 331.8 301.5 L 331.3 301.8 L 330.8 302.1 L 330.2 302.5 L 329.7 302.8 L 329.2 303.1 L 328.7 303.4 L 328.2 303.8 L 327.6 304.1 L 327.1 304.4 L 326.6 304.7 L 326.1 305.1 L 325.5 305.4 L 325.0 305.7 L 324.5 306.0 L 323.9 306.4 L 323.4 306.7 L 322.9 307.0 L 322.3 307.3 L 321.8 307.6 L 321.2 307.9 L 320.7 308.3 L 320.1 308.6 L 319.6 308.9 L 319.0 309.2 L 318.5 309.5 L 317.9 309.8 L 317.4 310.1 L 316.8 310.4 L 316.3 310.7 L 315.7 311.0 L 315.2 311.3 L 314.6 311.6 L 314.1 312.0 L 313.5 312.3 L 312.9 312.6 L 312.4 312.9 L 311.8 313.2 L 311.2 313.5 L 310.7 313.8 L 310.1 314.0 L 309.5 314.3 L 308.9 314.6 L 308.4 314.9 L 307.8 315.2 L 307.2 315.5 L 306.6 315.8 L 306.0 316.1 L 305.5 316.4 L 304.9 316.7 L 304.3 317.0 L 303.7 317.3 L 303.1 317.5 L 302.5 317.8 L 301.9 318.1 L 301.3 318.4 L 300.7 318.7 L 300.1 319.0 L 299.5 319.2 L 298.9 319.5 L 298.3 319.8 L 297.7 320.1 L 297.1 320.4 L 296.5 320.6 L 295.9 320.9 L 295.3 321.2 L 294.7 321.5 L 294.1 321.7 L 293.5 322.0 L 292.8 322.3 L 292.2 322.5 L 291.6 322.8 L 291.0 323.1 L 290.4 323.3 L 289.7 323.6 L 289.1 323.9 L 288.5 324.1 L 287.9 324.4 L 287.2 324.7 L 286.6 324.9 L 286.0 325.2 L 285.3 325.4 L 284.7 325.7 L 284.1 326.0 L 283.4 326.2 L 282.8 326.5 L 282.2 326.7 L 281.5 327.0 L 280.9 327.2 L 280.2 327.5 L 279.6 327.7 L 278.9 328.0 L 278.3 328.2 L 277.6 328.5 L 277.0 328.7 L 276.3 329.0 L 275.7 329.2 L 275.0 329.5 L 274.4 329.7 L 273.7 330.0 L 273.0 330.2 L 272.4 330.5 L 271.7 330.7 L 271.0 330.9 L 270.4 331.2 L 269.7 331.4 L 269.0 331.7 L 268.4 331.9 L 267.7 332.1 L 267.0 332.4 L 266.3 332.6 L 265.7 332.8 L 265.0 333.1 L 264.3 333.3 L 263.6 333.5 L 262.9 333.8 L 262.2 334.0 L 261.6 334.2 L 260.9 334.4 L 260.2 334.7 L 259.5 334.9 L 258.8 335.1 L 258.1 335.3 L 257.4 335.6 L 256.7 335.8 L 256.0 336.0" fill="none" stroke="#6D6E71" stroke-width="12" stroke-linecap="round" stroke-dasharray="24 18"/>
  <polygon points="122.2,170.4 169.8,170.4 146.0,212.6" fill="#F7941E"/>
  <circle cx="146" cy="148" r="34" fill="#F7941E"/>
  <circle cx="146" cy="148" r="14.3" fill="#FFFFFF"/>
  <polygon points="338.0,218.4 394.0,218.4 366.0,268.0" fill="#F7941E"/>
  <circle cx="366" cy="192" r="40" fill="#F7941E"/>
  <circle cx="366" cy="192" r="16.8" fill="#FFFFFF"/>
  <polygon points="167.6,382.3 240.4,382.3 204.0,446.8" fill="#F7941E"/>
  <circle cx="204" cy="348" r="52" fill="#F7941E"/>
  <circle cx="204" cy="348" r="21.8" fill="#FFFFFF"/>
  <polygon points="292.0,330.0 292.0,421.0 315.9,399.7 330.0,433.5 344.0,427.8 330.5,394.5 361.7,394.5" fill="#6D6E71"/>
</svg>